<?xml version="1.0" encoding="UTF-8" standalone="no"?>
<svg width="386px" height="308px" viewBox="0 0 386 308" version="1.1" xmlns="http://www.w3.org/2000/svg" xmlns:xlink="http://www.w3.org/1999/xlink">
    <defs></defs>
    <g id="Page-1" stroke="none" stroke-width="1" fill="none" fill-rule="evenodd">
        <g id="safari-tab-icon" fill="#000000">
            <path d="M0.79,0 L386,0 L386,3.09 C348.3,3.16 310.6,3.04 272.9,3.16 C273.15,18.77 272.79,34.37 272.91,49.99 C273.33,58.64 272.69,67.29 272.9,75.94 C310.6,76.08 348.3,75.96 386,76 L386,79.1 C348.3,79.16 310.6,79.04 272.9,79.15 C273.23,97.11 272.56,115.07 273.1,133.02 C272.88,139.32 272.86,145.63 272.9,151.94 C310.6,152.08 348.3,151.96 386,152 L386,155.09 C348.3,155.16 310.6,155.04 272.9,155.15 C273.23,173.1 272.56,191.04 273.1,208.99 C272.88,215.3 272.86,221.62 272.9,227.94 C310.6,228.08 348.3,227.96 386,228 L386,231.1 C348.36,231.13 310.72,231.09 273.07,231.12 C272.76,236.07 272.9,241.04 273.09,246 C272.61,265.31 273.19,284.63 272.9,303.94 C310.6,304.08 348.3,303.96 386,304 L386,307.09 C257.59,307.12 129.19,307.1 0.78,307.11 C0.78,204.74 0.76,102.37 0.79,0 Z M3.45,3.13 C92.4,3.09 181.34,3.11 270.28,3.12 C270.31,27.4 270.29,51.69 270.3,75.98 C181.35,76.01 92.4,76.02 3.45,75.98 C3.47,51.69 3.46,27.41 3.45,3.13 Z M3.46,79.12 C92.4,79.09 181.34,79.1 270.28,79.12 C270.31,103.4 270.29,127.69 270.3,151.98 C181.35,152.01 92.4,152.02 3.45,151.98 C3.47,127.69 3.46,103.41 3.46,79.12 Z M3.45,155.13 C92.39,155.08 181.34,155.11 270.28,155.12 C270.32,179.4 270.28,203.69 270.3,227.98 C181.35,228.02 92.4,228.01 3.45,227.98 C3.46,203.7 3.47,179.41 3.45,155.13 Z M3.46,231.12 C92.4,231.1 181.34,231.1 270.28,231.12 C270.31,255.4 270.29,279.69 270.3,303.98 C181.35,304.01 92.4,304.02 3.45,303.97 C3.47,279.69 3.46,255.41 3.46,231.12 Z" id="Shape"></path>
        </g>
    </g>
</svg>