<?xml version="1.0" encoding="UTF-8" ?>
<!DOCTYPE svg PUBLIC "-//W3C//DTD SVG 1.1//EN" "http://www.w3.org/Graphics/SVG/1.1/DTD/svg11.dtd">
<svg width="400pt" height="400pt" viewBox="0 0 400 400" version="1.1" xmlns="http://www.w3.org/2000/svg">
<path fill="#ffffff" d=" M 0.00 0.00 L 400.00 0.00 L 400.00 12.00 C 271.60 12.00 143.20 12.00 14.79 12.00 C 14.76 114.37 14.78 216.74 14.78 319.11 C 143.19 319.10 271.59 319.12 400.00 319.09 L 400.00 386.00 C 271.60 386.00 143.20 386.00 14.80 386.00 C 14.79 390.67 14.79 395.33 14.79 400.00 L 0.00 400.00 L 0.00 0.00 Z" />
<path fill="#000000" d=" M 14.79 12.00 C 143.20 12.00 271.60 12.00 400.00 12.00 L 400.00 15.09 C 362.30 15.16 324.60 15.04 286.90 15.16 C 287.15 30.77 286.79 46.37 286.91 61.99 C 287.33 70.64 286.69 79.29 286.90 87.94 C 324.60 88.08 362.30 87.96 400.00 88.00 L 400.00 91.10 C 362.30 91.16 324.60 91.04 286.90 91.15 C 287.23 109.11 286.56 127.07 287.10 145.02 C 286.88 151.32 286.86 157.63 286.90 163.94 C 324.60 164.08 362.30 163.96 400.00 164.00 L 400.00 167.09 C 362.30 167.16 324.60 167.04 286.90 167.15 C 287.23 185.10 286.56 203.04 287.10 220.99 C 286.88 227.30 286.86 233.62 286.90 239.94 C 324.60 240.08 362.30 239.96 400.00 240.00 L 400.00 243.10 C 362.36 243.13 324.72 243.09 287.07 243.12 C 286.76 248.07 286.90 253.04 287.09 258.00 C 286.61 277.31 287.19 296.63 286.90 315.94 C 324.60 316.08 362.30 315.96 400.00 316.00 L 400.00 319.09 C 271.59 319.12 143.19 319.10 14.78 319.11 C 14.78 216.74 14.76 114.37 14.79 12.00 Z" />
<path fill="#ffffff" d=" M 17.45 15.13 C 106.40 15.09 195.34 15.11 284.28 15.12 C 284.31 39.40 284.29 63.69 284.30 87.98 C 195.35 88.01 106.40 88.02 17.45 87.98 C 17.47 63.69 17.46 39.41 17.45 15.13 Z" />
<path fill="#ffffff" d=" M 286.90 15.16 C 324.60 15.04 362.30 15.16 400.00 15.09 L 400.00 42.25 C 398.23 43.33 395.59 43.77 394.93 46.03 C 394.65 47.39 394.66 48.75 394.95 50.11 C 395.96 52.04 398.29 52.51 400.00 53.61 L 400.00 58.84 C 398.27 58.15 396.52 57.53 394.79 56.87 C 394.79 57.73 394.77 59.46 394.77 60.33 C 396.50 60.74 398.26 61.10 400.00 61.54 L 400.00 88.00 C 362.30 87.96 324.60 88.08 286.90 87.94 C 286.69 79.29 287.33 70.64 286.91 61.99 C 286.79 46.37 287.15 30.77 286.90 15.16 Z" />
<path fill="#000000" d=" M 47.81 36.21 C 48.62 36.23 50.23 36.26 51.04 36.27 C 50.87 39.07 50.89 41.87 50.92 44.67 C 53.84 41.87 60.06 41.53 61.23 46.23 C 61.72 51.15 61.32 56.12 61.42 61.06 C 60.65 61.02 59.10 60.93 58.32 60.89 C 58.22 56.61 58.49 52.32 58.20 48.05 C 57.94 46.38 56.21 45.82 55.03 44.95 C 53.57 46.00 51.51 46.84 51.33 48.91 C 50.61 52.90 50.97 56.99 50.89 61.03 C 50.12 61.00 48.58 60.95 47.81 60.92 C 47.78 52.69 47.78 44.45 47.81 36.21 Z" />
<path fill="#000000" d=" M 337.50 36.03 C 340.13 35.99 342.76 35.99 345.39 36.01 C 345.56 42.54 345.28 49.09 345.52 55.62 C 345.75 58.67 349.35 57.92 351.44 58.10 C 351.43 58.84 351.42 60.31 351.41 61.05 C 347.96 61.37 342.94 61.00 342.40 56.64 C 342.15 50.70 342.40 44.75 342.30 38.80 C 340.75 38.73 339.20 38.73 337.67 38.55 C 337.63 37.92 337.54 36.66 337.50 36.03 Z" />
<path fill="#000000" d=" M 70.24 43.16 C 73.78 41.88 78.83 42.62 80.36 46.52 C 81.68 50.17 81.74 54.50 80.06 58.05 C 78.18 61.46 73.67 61.93 70.30 60.83 C 67.32 59.45 65.92 56.15 66.09 53.00 C 65.79 49.34 66.47 44.83 70.24 43.16 Z" />
<path fill="#000000" d=" M 86.31 43.06 C 87.09 43.04 88.66 42.99 89.44 42.97 C 89.55 47.16 89.14 51.39 89.74 55.55 C 89.85 57.51 92.36 59.45 94.14 58.24 C 95.73 57.50 96.89 55.84 96.77 54.04 C 96.86 50.36 96.75 46.68 96.81 43.00 C 97.58 43.00 99.13 43.00 99.90 43.00 C 99.87 49.09 99.95 55.18 99.85 61.28 C 98.60 60.95 97.36 60.62 96.13 60.23 C 94.08 61.14 91.84 61.30 89.63 61.37 C 88.50 60.25 86.95 59.20 86.75 57.48 C 86.07 52.70 86.37 47.86 86.31 43.06 Z" />
<path fill="#000000" d=" M 108.12 42.97 C 108.89 42.97 110.45 42.98 111.22 42.98 C 111.18 43.48 111.10 44.49 111.06 44.99 C 113.30 43.14 116.16 42.08 119.07 42.88 C 121.24 42.87 120.52 45.56 121.04 46.92 C 118.27 45.68 114.68 44.64 112.50 47.48 C 110.07 51.53 111.69 56.55 111.21 61.01 C 110.44 61.00 108.89 60.98 108.11 60.98 C 108.13 54.97 108.12 48.97 108.12 42.97 Z" />
<path fill="#000000" d=" M 317.56 49.97 C 317.65 46.07 321.14 42.64 325.04 42.66 C 327.18 42.48 329.27 43.03 331.28 43.74 C 331.27 44.63 331.25 46.40 331.23 47.29 C 329.20 46.32 326.98 44.61 324.62 45.55 C 319.35 47.51 319.33 56.39 324.59 58.37 C 326.93 59.24 329.20 57.73 331.24 56.73 C 331.25 57.60 331.27 59.33 331.28 60.20 C 327.71 61.60 323.08 62.09 320.07 59.27 C 317.32 57.03 317.35 53.18 317.56 49.97 Z" />
<path fill="#000000" d=" M 356.26 43.70 C 360.36 42.49 366.45 41.39 369.06 45.78 C 370.35 50.70 369.46 55.90 369.71 60.94 C 368.95 60.96 367.44 61.01 366.69 61.03 C 366.66 60.58 366.61 59.67 366.59 59.22 C 363.66 61.73 358.48 62.38 355.84 59.16 C 354.48 56.50 354.43 52.10 357.53 50.59 C 360.42 49.00 363.89 49.82 367.04 49.34 C 366.22 48.09 365.94 46.23 364.30 45.76 C 361.62 44.48 358.79 46.21 356.24 47.04 C 356.24 46.20 356.26 44.53 356.26 43.70 Z" />
<path fill="#000000" d=" M 378.38 43.40 C 381.22 42.04 384.48 42.92 387.48 43.11 C 387.72 44.33 387.95 45.56 388.19 46.79 C 385.21 45.78 380.70 43.74 378.79 47.49 C 379.37 50.63 383.48 50.08 385.79 51.15 C 389.11 51.91 389.41 56.30 388.01 58.81 C 385.04 62.47 379.76 61.28 375.77 60.41 C 375.77 59.53 375.78 57.77 375.79 56.89 C 377.74 57.63 379.70 58.59 381.83 58.68 C 383.71 58.73 384.94 57.13 386.18 55.97 C 384.32 53.48 381.19 53.17 378.44 52.34 C 374.63 51.17 374.78 44.77 378.38 43.40 Z" />
<path fill="#000000" d=" M 394.93 46.03 C 395.59 43.77 398.23 43.33 400.00 42.25 L 400.00 45.71 C 397.02 45.82 397.19 49.66 400.00 49.93 L 400.00 53.61 C 398.29 52.51 395.96 52.04 394.95 50.11 C 394.66 48.75 394.65 47.39 394.93 46.03 Z" />
<path fill="#ffffff" d=" M 72.49 45.49 C 75.14 44.52 77.67 47.37 77.76 49.87 C 77.91 52.57 78.30 56.02 75.73 57.77 C 73.54 59.95 70.26 57.62 69.70 55.11 C 69.07 51.80 68.90 47.21 72.49 45.49 Z" />
<path fill="#ffffff" d=" M 400.00 49.93 C 397.19 49.66 397.02 45.82 400.00 45.71 L 400.00 49.93 Z" />
<path fill="#ffffff" d=" M 358.26 54.20 C 360.17 51.42 363.86 52.17 366.74 52.05 C 366.26 54.14 366.10 56.84 363.89 57.89 C 361.44 60.08 357.04 57.42 358.26 54.20 Z" />
<path fill="#000000" d=" M 394.79 56.87 C 396.52 57.53 398.27 58.15 400.00 58.84 L 400.00 61.54 C 398.26 61.10 396.50 60.74 394.77 60.33 C 394.77 59.46 394.79 57.73 394.79 56.87 Z" />
<path fill="#ffffff" d=" M 17.46 91.12 C 106.40 91.09 195.34 91.10 284.28 91.12 C 284.31 115.40 284.29 139.69 284.30 163.98 C 195.35 164.01 106.40 164.02 17.45 163.98 C 17.47 139.69 17.46 115.41 17.46 91.12 Z" />
<path fill="#ffffff" d=" M 286.90 91.15 C 324.60 91.04 362.30 91.16 400.00 91.10 L 400.00 111.99 C 398.37 112.00 396.74 112.01 395.12 112.03 C 395.11 112.69 395.10 114.01 395.09 114.66 C 396.72 114.69 398.36 114.72 400.00 114.74 L 400.00 164.00 C 362.30 163.96 324.60 164.08 286.90 163.94 C 286.86 157.63 286.88 151.32 287.10 145.02 C 286.56 127.07 287.23 109.11 286.90 91.15 Z" />
<path fill="#000000" d=" M 395.12 112.03 C 396.74 112.01 398.37 112.00 400.00 111.99 L 400.00 114.74 C 398.36 114.72 396.72 114.69 395.09 114.66 C 395.10 114.01 395.11 112.69 395.12 112.03 Z" />
<path fill="#000000" d=" M 47.91 116.55 C 50.54 114.34 53.97 113.05 57.44 113.22 C 57.45 120.11 57.42 127.00 57.46 133.88 C 59.06 133.90 60.65 133.91 62.25 133.92 C 62.24 134.69 62.22 136.23 62.21 137.00 C 57.88 136.96 53.56 137.08 49.24 136.95 C 49.18 136.20 49.04 134.69 48.97 133.93 C 50.68 133.91 52.40 133.88 54.11 133.85 C 54.12 128.18 54.15 122.50 54.09 116.83 C 52.14 117.71 50.20 118.61 48.28 119.54 C 48.12 118.55 47.95 117.55 47.91 116.55 Z" />
<path fill="#000000" d=" M 66.77 113.72 C 70.60 112.87 75.20 111.79 78.52 114.55 C 81.60 117.07 80.96 122.18 77.68 124.23 C 81.31 126.36 82.12 131.40 79.73 134.73 C 76.24 138.46 70.54 137.37 66.11 136.35 C 66.11 135.46 66.10 133.66 66.09 132.76 C 68.90 133.61 72.02 135.21 74.93 133.86 C 77.23 133.06 78.48 130.01 77.04 127.94 C 75.49 125.40 72.15 125.75 69.61 125.43 C 69.43 120.99 75.12 124.19 76.62 120.83 C 78.15 118.87 76.18 116.15 74.00 115.92 C 71.54 115.53 69.11 116.39 66.79 117.08 C 66.78 116.24 66.78 114.56 66.77 113.72 Z" />
<path fill="#000000" d=" M 105.28 113.69 C 108.78 113.04 112.79 111.90 116.07 113.87 C 120.00 115.82 119.97 122.24 116.05 124.23 C 120.06 126.34 120.78 132.36 117.51 135.41 C 113.85 138.35 108.76 137.26 104.56 136.34 C 104.56 135.45 104.55 133.66 104.55 132.76 C 107.42 133.68 110.61 135.22 113.58 133.78 C 116.14 132.85 117.15 129.09 114.95 127.27 C 113.38 125.49 110.84 125.89 108.74 125.47 C 108.65 124.84 108.46 123.59 108.37 122.97 C 111.13 122.98 115.52 122.80 115.68 119.09 C 114.49 114.28 108.66 115.93 105.26 117.03 C 105.27 115.91 105.28 114.80 105.28 113.69 Z" />
<path fill="#000000" d=" M 129.29 113.09 C 132.02 112.48 135.36 112.85 137.09 115.32 C 139.70 118.99 139.29 123.73 139.22 127.99 C 139.05 131.48 137.80 135.68 134.20 137.04 C 131.62 137.42 128.43 137.63 126.60 135.37 C 123.62 131.99 124.10 127.14 124.10 122.96 C 124.11 119.19 125.23 114.40 129.29 113.09 Z" />
<path fill="#000000" d=" M 163.52 116.09 C 166.43 114.55 169.44 112.97 172.85 113.19 C 172.96 120.07 172.86 126.95 172.90 133.82 C 174.52 133.87 176.15 133.91 177.77 133.95 C 177.75 134.71 177.69 136.23 177.67 136.99 C 173.32 137.01 168.98 137.00 164.64 137.00 C 164.62 136.23 164.57 134.69 164.55 133.92 C 166.22 133.91 167.89 133.91 169.57 133.90 C 169.60 128.20 169.62 122.50 169.55 116.81 C 167.58 117.73 165.61 118.65 163.63 119.55 C 163.61 118.69 163.55 116.95 163.52 116.09 Z" />
<path fill="#000000" d=" M 182.62 113.10 C 186.63 113.32 190.65 113.27 194.67 113.20 C 194.70 113.94 194.75 115.41 194.78 116.15 C 191.77 116.16 188.77 116.15 185.77 116.18 C 185.73 117.86 185.71 119.54 185.70 121.22 C 189.70 120.33 194.75 121.83 196.03 126.12 C 196.59 129.19 196.69 132.97 194.16 135.25 C 190.72 138.36 185.71 137.24 181.58 136.57 C 181.57 135.63 181.56 133.75 181.55 132.81 C 184.42 133.71 187.71 135.38 190.58 133.56 C 193.83 131.77 193.64 126.23 190.21 124.74 C 187.82 123.30 184.99 124.53 182.55 125.18 C 182.62 121.15 182.57 117.13 182.62 113.10 Z" />
<path fill="#000000" d=" M 226.08 113.03 C 228.82 112.47 232.03 112.97 233.69 115.45 C 236.18 119.14 235.77 123.83 235.70 128.07 C 235.51 131.45 234.42 135.61 230.88 136.92 C 228.22 137.59 224.85 137.57 222.98 135.24 C 219.99 131.48 220.57 126.41 220.61 121.93 C 220.76 118.37 222.25 114.04 226.08 113.03 Z" />
<path fill="#000000" d=" M 245.07 113.03 C 247.85 112.45 251.13 113.00 252.77 115.56 C 255.18 119.26 254.77 123.90 254.69 128.11 C 254.50 131.46 253.42 135.58 249.93 136.90 C 247.25 137.61 243.84 137.57 241.95 135.21 C 239.01 131.47 239.56 126.45 239.61 122.00 C 239.74 118.43 241.22 114.06 245.07 113.03 Z" />
<path fill="#000000" d=" M 317.59 113.14 C 322.19 113.31 326.80 113.32 331.40 113.13 C 331.43 113.89 331.49 115.41 331.52 116.17 C 328.01 116.16 324.50 116.13 321.00 116.22 C 320.92 118.13 320.88 120.05 320.86 121.98 C 324.30 122.13 327.74 122.05 331.19 122.06 C 331.20 122.82 331.23 124.35 331.24 125.11 C 327.79 125.12 324.35 125.09 320.91 125.19 C 320.89 128.07 320.89 130.95 320.91 133.83 C 324.57 133.93 328.23 133.89 331.90 133.90 C 331.89 134.68 331.89 136.23 331.89 137.00 C 327.12 137.00 322.36 137.00 317.60 137.00 C 317.58 129.04 317.60 121.09 317.59 113.14 Z" />
<path fill="#ffffff" d=" M 129.57 116.69 C 130.78 115.02 133.05 115.82 134.26 117.04 C 132.93 121.27 129.88 124.79 127.51 128.50 C 127.50 124.56 126.69 119.89 129.57 116.69 Z" />
<path fill="#ffffff" d=" M 223.94 128.49 C 224.01 124.29 223.07 118.75 226.98 115.91 C 228.60 114.97 229.91 116.72 231.14 117.50 C 228.72 121.15 226.62 125.02 223.94 128.49 Z" />
<path fill="#ffffff" d=" M 242.94 128.49 C 243.02 124.31 242.07 118.76 245.96 115.93 C 247.57 114.94 248.90 116.72 250.15 117.49 C 247.73 121.15 245.62 125.01 242.94 128.49 Z" />
<path fill="#000000" d=" M 86.31 119.04 C 87.10 119.03 88.66 118.99 89.44 118.98 C 89.55 123.18 89.14 127.41 89.74 131.58 C 89.85 133.42 91.70 134.10 93.00 134.99 C 94.45 133.88 96.58 132.96 96.71 130.88 C 96.93 126.91 96.72 122.93 96.81 118.95 C 97.62 118.99 99.24 119.07 100.04 119.11 C 99.73 125.16 100.01 131.22 99.85 137.28 C 98.60 136.96 97.36 136.62 96.13 136.23 C 93.13 137.71 88.29 138.11 86.96 134.29 C 85.92 129.28 86.42 124.12 86.31 119.04 Z" />
<path fill="#000000" d=" M 201.81 119.00 C 202.59 119.00 204.13 119.00 204.90 119.00 C 205.03 123.54 204.45 128.17 205.51 132.63 C 206.97 136.10 211.73 134.31 212.20 131.14 C 212.48 127.12 212.24 123.07 212.30 119.04 C 213.09 119.02 214.65 118.99 215.44 118.98 C 215.42 125.08 215.49 131.19 215.39 137.30 C 214.10 136.99 212.83 136.64 211.58 136.24 C 208.69 137.55 204.04 138.23 202.60 134.60 C 201.20 129.53 201.97 124.19 201.81 119.00 Z" />
<path fill="#000000" d=" M 336.82 118.72 C 338.32 118.97 339.99 119.07 340.78 120.60 C 341.20 120.03 341.63 119.46 342.07 118.89 C 345.13 118.35 349.36 118.38 350.21 122.16 C 350.73 127.10 350.32 132.10 350.42 137.06 C 349.65 137.02 348.10 136.93 347.32 136.88 C 347.21 132.59 347.50 128.29 347.19 124.00 C 346.92 122.37 345.20 121.82 344.04 120.95 C 342.59 122.00 340.52 122.80 340.34 124.86 C 339.59 128.83 339.89 132.89 340.10 136.89 C 339.28 136.92 337.64 136.96 336.81 136.98 C 336.78 130.89 336.77 124.81 336.82 118.72 Z" />
<path fill="#000000" d=" M 356.03 121.82 C 357.84 118.24 362.44 117.97 365.67 119.65 C 366.90 119.33 368.14 119.02 369.38 118.72 C 369.46 124.51 369.49 130.31 369.41 136.11 C 369.38 138.50 368.83 141.39 366.50 142.60 C 363.60 144.59 359.97 143.51 356.78 143.03 C 356.78 142.22 356.78 140.59 356.78 139.77 C 359.45 140.64 362.90 142.11 365.29 139.81 C 365.94 138.36 366.29 136.80 366.75 135.28 C 364.40 136.53 361.44 137.96 358.85 136.50 C 353.90 133.58 353.92 126.48 356.03 121.82 Z" />
<path fill="#000000" d=" M 379.32 119.10 C 382.09 118.33 385.54 118.23 387.72 120.43 C 389.93 122.31 390.07 125.41 390.37 128.09 C 386.09 128.10 381.81 128.03 377.53 128.15 C 377.69 130.26 378.11 132.77 380.26 133.79 C 383.17 135.72 386.58 133.71 389.46 132.78 C 389.46 133.61 389.48 135.27 389.49 136.10 C 385.02 137.59 378.95 138.46 375.81 134.06 C 373.06 129.30 373.64 121.46 379.32 119.10 Z" />
<path fill="#ffffff" d=" M 361.53 121.36 C 364.98 120.74 366.59 125.13 366.31 127.92 C 366.55 130.86 364.68 135.17 361.06 134.06 C 356.81 131.53 356.94 123.50 361.53 121.36 Z" />
<path fill="#ffffff" d=" M 377.64 125.44 C 378.63 123.38 380.33 121.21 382.86 121.26 C 385.09 121.55 386.39 123.50 387.12 125.45 C 383.96 125.66 380.79 125.65 377.64 125.44 Z" />
<path fill="#ffffff" d=" M 128.44 132.31 C 130.87 128.61 133.10 124.77 135.70 121.19 C 135.64 125.39 136.79 130.72 133.32 133.93 C 131.38 135.62 129.77 133.59 128.44 132.31 Z" />
<path fill="#ffffff" d=" M 224.92 132.24 C 227.40 128.59 229.63 124.78 232.18 121.18 C 232.31 125.89 233.46 132.78 227.91 134.91 C 226.90 134.03 225.90 133.15 224.92 132.24 Z" />
<path fill="#ffffff" d=" M 243.92 132.24 C 246.40 128.59 248.63 124.78 251.18 121.18 C 251.31 125.89 252.47 132.79 246.90 134.91 C 245.89 134.03 244.90 133.15 243.92 132.24 Z" />
<path fill="#000000" d=" M 142.61 125.16 C 148.14 125.31 153.68 125.29 159.21 125.17 C 159.22 125.92 159.25 127.42 159.26 128.16 C 153.68 128.15 148.10 128.15 142.52 128.17 C 142.54 127.41 142.59 125.91 142.61 125.16 Z" />
<path fill="#ffffff" d=" M 17.45 167.13 C 106.39 167.08 195.34 167.11 284.28 167.12 C 284.32 191.40 284.28 215.69 284.30 239.98 C 195.35 240.02 106.40 240.01 17.45 239.98 C 17.46 215.70 17.47 191.41 17.45 167.13 Z" />
<path fill="#ffffff" d=" M 286.90 167.15 C 324.60 167.04 362.30 167.16 400.00 167.09 L 400.00 187.99 C 398.37 188.00 396.74 188.01 395.12 188.03 C 395.12 188.69 395.10 190.00 395.09 190.66 C 396.72 190.69 398.36 190.72 400.00 190.74 L 400.00 240.00 C 362.30 239.96 324.60 240.08 286.90 239.94 C 286.86 233.62 286.88 227.30 287.10 220.99 C 286.56 203.04 287.23 185.10 286.90 167.15 Z" />
<path fill="#000000" d=" M 395.12 188.03 C 396.74 188.01 398.37 188.00 400.00 187.99 L 400.00 190.74 C 398.36 190.72 396.72 190.69 395.09 190.66 C 395.10 190.00 395.12 188.69 395.12 188.03 Z" />
<path fill="#000000" d=" M 47.73 192.41 C 50.70 190.64 53.86 188.92 57.44 189.21 C 57.46 196.10 57.42 202.99 57.46 209.88 C 59.05 209.90 60.65 209.91 62.25 209.93 C 62.24 210.69 62.22 212.23 62.20 213.00 C 57.84 213.00 53.48 213.00 49.12 213.00 C 49.12 212.23 49.10 210.70 49.09 209.93 C 50.77 209.91 52.44 209.88 54.11 209.85 C 54.12 204.18 54.14 198.51 54.09 192.84 C 52.15 193.72 50.20 194.58 48.28 195.50 C 48.11 194.47 47.92 193.43 47.73 192.41 Z" />
<path fill="#000000" d=" M 67.10 189.22 C 71.14 189.26 75.18 189.30 79.21 189.17 C 79.22 189.92 79.25 191.41 79.26 192.16 C 76.25 192.16 73.25 192.15 70.25 192.16 C 70.23 193.81 70.21 195.46 70.19 197.11 C 73.89 196.61 78.48 197.42 80.17 201.20 C 81.33 204.71 81.33 209.62 77.85 211.86 C 74.96 213.92 71.19 213.29 67.89 212.95 C 65.55 213.10 66.05 210.31 66.01 208.84 C 68.77 209.61 71.86 211.26 74.68 209.76 C 78.15 208.29 78.32 202.81 75.12 200.97 C 72.68 199.23 69.65 200.44 67.08 201.19 C 67.15 197.20 67.12 193.21 67.10 189.22 Z" />
<path fill="#000000" d=" M 110.05 189.04 C 112.84 188.44 116.13 189.00 117.77 191.56 C 120.17 195.26 119.77 199.89 119.69 204.10 C 119.50 207.45 118.43 211.57 114.93 212.90 C 112.27 213.60 108.89 213.58 107.00 211.26 C 103.98 207.50 104.57 202.39 104.61 197.90 C 104.77 194.36 106.25 190.06 110.05 189.04 Z" />
<path fill="#000000" d=" M 129.33 189.08 C 132.02 188.51 135.30 188.85 137.04 191.25 C 139.71 194.92 139.29 199.70 139.22 203.98 C 139.06 207.46 137.81 211.64 134.25 213.03 C 131.68 213.41 128.50 213.65 126.66 211.43 C 123.61 208.05 124.11 203.15 124.10 198.95 C 124.11 195.17 125.24 190.37 129.33 189.08 Z" />
<path fill="#000000" d=" M 163.52 192.08 C 166.44 190.55 169.45 188.95 172.87 189.22 C 172.94 196.09 172.86 202.96 172.92 209.84 C 174.53 209.88 176.15 209.91 177.77 209.94 C 177.75 210.70 177.70 212.22 177.67 212.99 C 173.33 213.01 168.98 213.00 164.64 213.00 C 164.62 212.23 164.57 210.69 164.55 209.92 C 166.22 209.91 167.89 209.91 169.57 209.90 C 169.60 204.20 169.62 198.51 169.55 192.81 C 167.58 193.72 165.61 194.65 163.63 195.55 C 163.61 194.69 163.55 192.95 163.52 192.08 Z" />
<path fill="#000000" d=" M 184.65 190.75 C 187.50 188.05 191.82 188.62 195.27 189.61 C 195.25 190.46 195.22 192.17 195.20 193.02 C 192.89 192.30 190.09 190.82 187.89 192.58 C 185.54 193.93 185.08 196.72 184.40 199.08 C 186.80 197.71 189.64 196.06 192.43 197.47 C 197.44 199.16 197.45 205.68 196.04 209.83 C 194.26 213.40 189.72 213.84 186.26 212.90 C 182.69 211.57 181.72 207.34 181.59 203.94 C 181.51 199.45 181.10 194.14 184.65 190.75 Z" />
<path fill="#000000" d=" M 221.26 189.71 C 224.77 189.04 228.79 187.90 232.08 189.87 C 235.99 191.83 235.97 198.24 232.04 200.23 C 236.06 202.35 236.79 208.41 233.47 211.45 C 229.81 214.35 224.75 213.25 220.56 212.34 C 220.56 211.45 220.55 209.66 220.55 208.76 C 223.43 209.68 226.62 211.23 229.60 209.77 C 232.15 208.82 233.16 205.07 230.93 203.25 C 229.32 201.47 226.75 201.73 224.60 201.59 C 224.58 200.93 224.54 199.62 224.52 198.96 C 226.99 198.83 230.66 199.01 231.51 196.00 C 232.19 194.51 230.80 193.10 229.70 192.31 C 226.94 191.12 223.99 192.34 221.28 193.03 C 221.27 191.92 221.27 190.81 221.26 189.71 Z" />
<path fill="#000000" d=" M 245.06 189.04 C 247.82 188.46 251.08 188.98 252.73 191.51 C 255.17 195.19 254.77 199.83 254.70 204.04 C 254.52 207.43 253.43 211.59 249.90 212.91 C 247.23 213.60 243.85 213.57 241.97 211.23 C 239.00 207.48 239.56 202.43 239.61 197.96 C 239.75 194.40 241.23 190.06 245.06 189.04 Z" />
<path fill="#000000" d=" M 317.58 189.14 C 322.19 189.31 326.80 189.31 331.41 189.13 C 331.44 189.89 331.49 191.41 331.52 192.17 C 328.01 192.15 324.50 192.12 320.99 192.22 C 320.92 194.15 320.89 196.08 320.86 198.02 C 324.30 198.11 327.74 198.05 331.19 198.06 C 331.20 198.82 331.23 200.35 331.24 201.11 C 327.80 201.12 324.35 201.09 320.91 201.18 C 320.89 204.06 320.89 206.95 320.90 209.83 C 324.56 209.93 328.23 209.89 331.89 209.90 C 331.89 210.68 331.89 212.23 331.89 213.00 C 327.12 213.00 322.36 213.00 317.60 213.00 C 317.58 205.05 317.60 197.09 317.58 189.14 Z" />
<path fill="#ffffff" d=" M 108.12 204.42 C 108.26 200.25 106.99 194.69 111.00 191.89 C 112.62 191.00 113.92 192.72 115.14 193.50 C 112.77 197.12 110.60 200.87 108.12 204.42 Z" />
<path fill="#ffffff" d=" M 129.62 192.63 C 131.04 190.80 133.50 192.08 134.53 193.63 C 132.19 197.25 130.06 201.02 127.52 204.51 C 127.50 200.55 126.68 195.82 129.62 192.63 Z" />
<path fill="#ffffff" d=" M 242.94 204.49 C 243.02 200.27 242.06 194.68 246.04 191.88 C 247.66 191.04 248.92 192.72 250.14 193.50 C 247.72 197.15 245.62 201.02 242.94 204.49 Z" />
<path fill="#000000" d=" M 86.31 195.04 C 87.10 195.03 88.66 194.99 89.44 194.98 C 89.55 199.15 89.15 203.35 89.72 207.50 C 89.80 209.36 91.66 210.09 92.98 210.99 C 94.47 209.87 96.66 208.92 96.72 206.77 C 96.92 202.85 96.72 198.92 96.81 195.00 C 97.58 195.00 99.13 195.00 99.90 195.00 C 99.87 201.09 99.95 207.19 99.86 213.28 C 98.61 212.95 97.36 212.61 96.13 212.23 C 94.08 213.15 91.82 213.30 89.61 213.36 C 88.49 212.25 86.98 211.21 86.75 209.51 C 86.07 204.72 86.36 199.86 86.31 195.04 Z" />
<path fill="#000000" d=" M 201.81 195.00 C 202.58 195.00 204.13 195.00 204.90 195.00 C 205.15 199.69 204.19 204.66 205.79 209.15 C 207.66 212.09 211.74 209.96 212.20 207.10 C 212.48 203.09 212.24 199.06 212.30 195.03 C 213.09 195.02 214.66 195.00 215.44 194.98 C 215.42 201.09 215.49 207.19 215.39 213.30 C 214.10 212.99 212.83 212.63 211.57 212.24 C 208.67 213.57 203.96 214.23 202.58 210.52 C 201.22 205.47 201.97 200.16 201.81 195.00 Z" />
<path fill="#000000" d=" M 336.81 194.92 C 337.59 194.97 339.16 195.08 339.94 195.13 C 340.09 195.56 340.37 196.43 340.52 196.87 C 340.90 196.38 341.68 195.40 342.06 194.91 C 344.99 194.46 349.00 194.21 350.09 197.77 C 350.89 202.80 350.25 207.99 350.42 213.09 C 349.64 213.03 348.08 212.90 347.29 212.83 C 347.24 208.56 347.49 204.28 347.20 200.02 C 346.92 198.37 345.20 197.82 344.02 196.95 C 342.60 197.99 340.58 198.79 340.36 200.79 C 339.60 204.78 339.88 208.87 340.07 212.90 C 339.26 212.92 337.63 212.96 336.81 212.98 C 336.77 206.96 336.78 200.94 336.81 194.92 Z" />
<path fill="#000000" d=" M 356.02 197.83 C 357.83 194.24 362.44 193.97 365.68 195.65 C 366.91 195.33 368.14 195.02 369.38 194.72 C 369.46 200.51 369.49 206.31 369.41 212.10 C 369.37 214.46 368.86 217.31 366.59 218.55 C 363.68 220.60 360.00 219.51 356.78 219.03 C 356.78 218.22 356.78 216.59 356.78 215.77 C 359.46 216.64 362.90 218.11 365.29 215.81 C 365.94 214.36 366.29 212.80 366.75 211.28 C 364.39 212.55 361.37 213.98 358.79 212.46 C 353.90 209.53 353.94 202.47 356.02 197.83 Z" />
<path fill="#000000" d=" M 379.32 195.10 C 382.08 194.33 385.54 194.23 387.72 196.43 C 389.93 198.31 390.06 201.42 390.37 204.09 C 386.09 204.10 381.81 204.03 377.53 204.15 C 377.69 206.27 378.12 208.79 380.29 209.81 C 383.19 211.71 386.58 209.70 389.45 208.78 C 389.46 209.61 389.48 211.27 389.49 212.10 C 385.03 213.58 378.97 214.46 375.82 210.08 C 373.06 205.32 373.64 197.46 379.32 195.10 Z" />
<path fill="#ffffff" d=" M 361.50 197.41 C 364.50 196.62 366.43 200.50 366.30 203.07 C 366.70 206.18 365.09 211.22 361.05 210.06 C 356.83 207.54 356.92 199.53 361.50 197.41 Z" />
<path fill="#ffffff" d=" M 377.65 201.45 C 378.61 199.37 380.34 197.22 382.84 197.27 C 385.10 197.53 386.36 199.53 387.16 201.44 C 383.99 201.66 380.82 201.65 377.65 201.45 Z" />
<path fill="#ffffff" d=" M 108.92 208.24 C 111.41 204.59 113.63 200.78 116.18 197.18 C 116.31 201.89 117.47 208.80 111.90 210.91 C 110.89 210.03 109.90 209.14 108.92 208.24 Z" />
<path fill="#ffffff" d=" M 128.44 208.31 C 130.87 204.61 133.09 200.77 135.70 197.19 C 135.64 201.38 136.79 206.70 133.34 209.91 C 131.40 211.63 129.77 209.59 128.44 208.31 Z" />
<path fill="#ffffff" d=" M 243.92 208.21 C 246.42 204.58 248.63 200.77 251.18 197.18 C 251.31 201.89 252.47 208.81 246.89 210.91 C 245.88 210.02 244.90 209.13 243.92 208.21 Z" />
<path fill="#ffffff" d=" M 187.34 200.56 C 189.82 198.76 193.49 201.03 193.35 204.02 C 193.97 206.93 192.46 210.67 189.07 210.69 C 184.64 209.69 183.75 203.01 187.34 200.56 Z" />
<path fill="#000000" d=" M 142.60 201.16 C 148.14 201.31 153.68 201.29 159.21 201.17 C 159.22 201.92 159.25 203.42 159.26 204.16 C 153.68 204.15 148.10 204.15 142.52 204.17 C 142.54 203.41 142.58 201.91 142.60 201.16 Z" />
<path fill="#ffffff" d=" M 17.46 243.12 C 106.40 243.10 195.34 243.10 284.28 243.12 C 284.31 267.40 284.29 291.69 284.30 315.98 C 195.35 316.01 106.40 316.02 17.45 315.97 C 17.47 291.69 17.46 267.41 17.46 243.12 Z" />
<path fill="#ffffff" d=" M 287.07 243.12 C 324.72 243.09 362.36 243.13 400.00 243.10 L 400.00 263.95 C 398.28 264.01 396.57 264.06 394.87 264.11 C 394.95 264.75 395.12 266.05 395.20 266.69 C 396.80 266.70 398.39 266.72 400.00 266.73 L 400.00 316.00 C 362.30 315.96 324.60 316.08 286.90 315.94 C 287.19 296.63 286.61 277.31 287.09 258.00 C 286.90 253.04 286.76 248.07 287.07 243.12 Z" />
<path fill="#000000" d=" M 394.87 264.11 C 396.57 264.06 398.28 264.01 400.00 263.95 L 400.00 266.73 C 398.39 266.72 396.80 266.70 395.20 266.69 C 395.12 266.05 394.95 264.75 394.87 264.11 Z" />
<path fill="#000000" d=" M 47.63 270.29 C 48.41 266.14 53.90 265.32 57.44 265.23 C 57.44 272.10 57.43 278.98 57.44 285.86 C 59.05 285.89 60.65 285.91 62.25 285.94 C 62.24 286.70 62.22 288.23 62.20 289.00 C 57.89 288.95 53.57 289.12 49.25 288.92 C 47.33 285.20 51.80 285.86 54.11 285.80 C 54.12 280.14 54.15 274.48 54.09 268.83 C 52.24 269.65 50.41 270.51 48.60 271.42 C 48.36 271.14 47.88 270.57 47.63 270.29 Z" />
<path fill="#000000" d=" M 70.12 266.02 C 73.00 264.15 76.68 264.70 79.78 265.70 C 79.77 266.50 79.77 268.12 79.76 268.93 C 77.40 268.32 74.71 266.89 72.43 268.51 C 70.10 269.88 69.66 272.72 68.72 275.02 C 71.05 273.99 73.54 272.21 76.20 273.22 C 83.32 274.92 83.27 287.65 76.07 289.18 C 73.25 289.47 69.81 289.45 68.04 286.82 C 65.65 283.37 66.13 278.95 66.11 274.98 C 66.08 271.63 67.20 267.94 70.12 266.02 Z" />
<path fill="#000000" d=" M 105.30 265.67 C 108.80 265.05 112.79 263.90 116.07 265.87 C 119.99 267.81 119.97 274.23 116.05 276.23 C 120.06 278.33 120.77 284.35 117.52 287.40 C 113.86 290.35 108.76 289.26 104.56 288.34 C 104.56 287.45 104.56 285.66 104.56 284.76 C 107.41 285.67 110.58 287.21 113.54 285.80 C 116.15 284.90 117.18 281.03 114.90 279.22 C 113.30 277.47 110.76 277.73 108.62 277.61 C 108.59 276.95 108.54 275.62 108.51 274.96 C 111.45 275.28 116.76 274.16 115.40 270.07 C 113.23 266.37 108.51 268.14 105.25 269.03 C 105.27 267.91 105.29 266.79 105.30 265.67 Z" />
<path fill="#000000" d=" M 129.31 265.09 C 132.02 264.49 135.34 264.85 137.07 267.29 C 139.72 270.98 139.29 275.76 139.22 280.06 C 139.04 283.52 137.79 287.63 134.26 289.03 C 131.70 289.40 128.53 289.66 126.68 287.45 C 123.62 284.09 124.11 279.21 124.10 275.01 C 124.10 271.22 125.21 266.39 129.31 265.09 Z" />
<path fill="#000000" d=" M 163.52 268.09 C 166.43 266.55 169.45 264.94 172.86 265.21 C 173.01 272.10 172.70 279.00 173.07 285.88 C 174.63 285.90 176.20 285.91 177.77 285.92 C 177.75 286.69 177.70 288.22 177.67 288.99 C 173.33 289.01 168.98 289.00 164.64 289.00 C 164.62 288.23 164.57 286.69 164.55 285.92 C 166.22 285.91 167.90 285.90 169.57 285.89 C 169.60 280.20 169.62 274.50 169.55 268.80 C 167.58 269.73 165.61 270.65 163.64 271.56 C 163.61 270.69 163.55 268.96 163.52 268.09 Z" />
<path fill="#000000" d=" M 182.53 267.94 C 184.63 264.38 189.74 264.06 193.19 265.60 C 197.45 267.43 197.29 274.00 193.49 276.29 C 198.24 278.76 198.14 287.15 192.78 288.81 C 189.50 289.69 185.39 289.71 182.84 287.10 C 180.44 283.87 180.88 278.19 184.89 276.38 C 182.12 274.49 181.30 270.99 182.53 267.94 Z" />
<path fill="#000000" d=" M 226.11 265.02 C 228.88 264.46 232.13 265.01 233.76 267.55 C 236.18 271.24 235.77 275.90 235.69 280.11 C 235.50 283.45 234.43 287.57 230.94 288.89 C 228.30 289.60 224.92 289.59 223.02 287.29 C 219.98 283.54 220.57 278.44 220.61 273.94 C 220.76 270.37 222.26 266.01 226.11 265.02 Z" />
<path fill="#000000" d=" M 245.07 265.03 C 247.36 264.65 249.96 264.72 251.75 266.41 C 254.31 268.84 254.73 272.64 254.75 275.98 C 254.78 279.82 254.88 284.16 252.27 287.29 C 250.29 289.60 246.81 289.61 244.10 288.85 C 239.49 286.48 239.43 280.50 239.55 276.00 C 239.41 271.86 240.48 266.34 245.07 265.03 Z" />
<path fill="#000000" d=" M 317.58 265.14 C 322.19 265.30 326.80 265.31 331.41 265.13 C 331.44 265.89 331.49 267.41 331.52 268.17 C 328.00 268.15 324.48 268.12 320.97 268.22 C 320.91 270.16 320.89 272.10 320.87 274.05 C 324.31 274.09 327.75 274.04 331.19 274.06 C 331.20 274.82 331.23 276.35 331.24 277.11 C 327.80 277.12 324.35 277.09 320.91 277.18 C 320.89 280.06 320.89 282.95 320.90 285.83 C 324.54 285.96 328.19 285.80 331.83 285.96 C 331.79 286.70 331.71 288.18 331.66 288.92 C 326.98 289.13 322.28 288.94 317.60 289.00 C 317.58 281.04 317.60 273.09 317.58 265.14 Z" />
<path fill="#ffffff" d=" M 129.63 268.62 C 130.87 267.00 133.05 267.86 134.26 269.04 C 132.94 273.27 129.89 276.78 127.51 280.49 C 127.50 276.52 126.68 271.81 129.63 268.62 Z" />
<path fill="#ffffff" d=" M 185.34 273.03 C 185.13 270.22 186.22 268.00 189.02 267.11 C 191.53 267.84 193.67 269.87 192.73 272.70 C 191.35 275.86 187.26 275.36 185.34 273.03 Z" />
<path fill="#ffffff" d=" M 223.94 280.48 C 224.01 276.27 223.07 270.67 227.04 267.87 C 228.65 267.04 229.92 268.72 231.15 269.49 C 228.73 273.14 226.63 277.01 223.94 280.48 Z" />
<path fill="#ffffff" d=" M 242.94 280.48 C 243.02 276.28 242.07 270.71 246.00 267.89 C 247.63 267.01 248.92 268.71 250.14 269.50 C 247.72 273.15 245.62 277.01 242.94 280.48 Z" />
<path fill="#000000" d=" M 86.31 271.05 C 87.09 271.03 88.66 270.99 89.44 270.97 C 89.55 275.17 89.14 279.40 89.74 283.57 C 89.83 285.40 91.70 286.09 92.99 286.99 C 94.47 285.87 96.66 284.91 96.72 282.76 C 96.92 278.84 96.72 274.92 96.81 271.00 C 97.58 271.00 99.13 271.00 99.90 271.00 C 99.87 277.09 99.95 283.19 99.85 289.28 C 98.61 288.96 97.37 288.62 96.15 288.20 C 93.16 289.73 88.27 290.11 86.95 286.26 C 85.92 281.27 86.43 276.12 86.31 271.05 Z" />
<path fill="#000000" d=" M 201.81 271.00 C 202.59 271.00 204.13 271.00 204.90 271.00 C 205.14 275.68 204.21 280.63 205.78 285.13 C 207.63 288.10 211.75 285.97 212.20 283.10 C 212.48 279.09 212.24 275.06 212.30 271.04 C 213.09 271.02 214.66 271.00 215.44 270.98 C 215.42 277.09 215.49 283.19 215.39 289.30 C 214.10 288.98 212.82 288.63 211.56 288.24 C 208.67 289.59 203.93 290.21 202.57 286.50 C 201.22 281.46 201.97 276.16 201.81 271.00 Z" />
<path fill="#000000" d=" M 336.82 270.72 C 338.33 270.96 339.99 271.08 340.79 272.61 C 341.20 272.04 341.61 271.47 342.03 270.90 C 344.97 270.47 349.01 270.20 350.09 273.78 C 350.89 278.80 350.24 283.98 350.42 289.07 C 349.64 289.02 348.09 288.92 347.31 288.87 C 347.22 284.59 347.49 280.30 347.20 276.03 C 346.93 274.37 345.20 273.82 344.03 272.95 C 342.58 274.01 340.49 274.83 340.33 276.91 C 339.59 280.90 339.98 284.99 339.89 289.03 C 339.12 289.00 337.58 288.95 336.81 288.92 C 336.78 282.86 336.76 276.79 336.82 270.72 Z" />
<path fill="#000000" d=" M 356.04 273.80 C 357.86 270.24 362.44 269.97 365.67 271.64 C 366.90 271.33 368.14 271.02 369.38 270.72 C 369.46 276.50 369.49 282.29 369.41 288.08 C 369.38 290.48 368.83 293.39 366.50 294.60 C 363.60 296.59 359.97 295.51 356.78 295.03 C 356.78 294.21 356.78 292.58 356.78 291.77 C 359.46 292.64 362.93 294.12 365.30 291.79 C 365.95 290.35 366.29 288.79 366.75 287.28 C 364.39 288.54 361.39 289.98 358.80 288.47 C 353.89 285.53 353.93 278.45 356.04 273.80 Z" />
<path fill="#000000" d=" M 379.31 271.11 C 382.07 270.32 385.55 270.22 387.73 272.44 C 389.94 274.32 390.06 277.42 390.36 280.09 C 386.08 280.09 381.80 280.03 377.53 280.15 C 377.69 282.27 378.12 284.78 380.27 285.80 C 383.17 287.72 386.58 285.70 389.45 284.78 C 389.46 285.61 389.48 287.27 389.49 288.10 C 385.03 289.59 378.95 290.47 375.81 286.07 C 373.06 281.31 373.64 273.47 379.31 271.11 Z" />
<path fill="#ffffff" d=" M 361.47 273.42 C 366.13 272.75 367.06 279.45 365.91 282.83 C 365.55 286.00 361.04 287.59 359.31 284.56 C 357.36 281.19 357.37 275.25 361.47 273.42 Z" />
<path fill="#ffffff" d=" M 377.39 277.24 C 378.77 275.52 380.33 273.20 382.84 273.27 C 385.09 273.52 386.36 275.52 387.16 277.43 C 383.91 277.66 380.62 277.75 377.39 277.24 Z" />
<path fill="#ffffff" d=" M 128.44 284.32 C 130.87 280.62 133.09 276.77 135.70 273.20 C 135.64 277.40 136.80 282.74 133.30 285.94 C 131.37 287.61 129.76 285.57 128.44 284.32 Z" />
<path fill="#ffffff" d=" M 224.92 284.24 C 227.40 280.60 229.62 276.78 232.18 273.20 C 232.31 277.90 233.46 284.79 227.91 286.91 C 226.89 286.03 225.90 285.14 224.92 284.24 Z" />
<path fill="#ffffff" d=" M 243.92 284.23 C 246.41 280.59 248.64 276.77 251.18 273.17 C 251.31 277.89 252.47 284.80 246.89 286.91 C 245.89 286.02 244.90 285.13 243.92 284.23 Z" />
<path fill="#ffffff" d=" M 72.44 276.19 C 76.00 274.77 78.65 278.81 77.85 282.00 C 78.19 284.61 75.92 285.97 73.97 287.00 C 69.10 285.84 67.99 278.55 72.44 276.19 Z" />
<path fill="#000000" d=" M 142.60 277.16 C 148.14 277.31 153.68 277.29 159.21 277.17 C 159.22 277.92 159.25 279.42 159.26 280.16 C 153.68 280.15 148.10 280.15 142.53 280.17 C 142.54 279.41 142.58 277.91 142.60 277.16 Z" />
<path fill="#ffffff" d=" M 187.20 278.22 C 189.91 277.08 193.67 278.75 193.35 282.01 C 193.85 284.96 190.20 287.64 187.57 286.24 C 184.13 285.11 183.89 279.68 187.20 278.22 Z" />
<path fill="#000000" d=" M 14.80 386.00 C 143.20 386.00 271.60 386.00 400.00 386.00 L 400.00 389.09 C 362.30 389.16 324.60 389.04 286.90 389.16 C 286.90 392.77 286.90 396.38 286.90 400.00 L 284.31 400.00 C 284.31 396.37 284.32 392.74 284.28 389.11 C 195.34 389.10 106.40 389.11 17.46 389.11 C 17.43 392.74 17.44 396.37 17.44 400.00 L 14.79 400.00 C 14.79 395.33 14.79 390.67 14.80 386.00 Z" />
<path fill="#ffffff" d=" M 17.46 389.11 C 106.40 389.11 195.34 389.10 284.28 389.11 C 284.32 392.74 284.31 396.37 284.31 400.00 L 17.44 400.00 C 17.44 396.37 17.43 392.74 17.46 389.11 Z" />
<path fill="#ffffff" d=" M 286.90 389.16 C 324.60 389.04 362.30 389.16 400.00 389.09 L 400.00 400.00 L 286.90 400.00 C 286.90 396.38 286.90 392.77 286.90 389.16 Z" />
</svg>
